<svg xmlns="http://www.w3.org/2000/svg" viewBox="0 0 1200 250" role="img" aria-labelledby="title desc">
<title id="title">PilotDesk</title><desc id="desc">PilotDesk aviation math logo with a top-down airplane and calculator symbols.</desc>
<defs>
 <linearGradient id="silver" x1="0" y1="0" x2="0" y2="1"><stop offset="0" stop-color="#ffffff"/><stop offset="0.58" stop-color="#e8eaed"/><stop offset="1" stop-color="#aeb3ba"/></linearGradient>
</defs>
<g fill="none" stroke="url(#silver)" stroke-linecap="round" stroke-linejoin="round">
 <path d="M155 25 L149 39 Q143 41 142 49 L138 88 L62 94 Q52 95 51 104 L53 119 L137 129 L145 168 L116 176 Q108 178 107 186 L108 198 L142 203 L155 190 L168 203 L202 198 L203 186 Q202 178 194 176 L165 168 L173 129 L257 119 L259 104 Q258 95 248 94 L172 88 L168 49 Q167 41 161 39 Z" stroke-width="5.2"/>
 <path d="M155 190 L150 206 M155 190 L160 206" stroke-width="4.2"/>
</g>
<g fill="none" stroke="#f5f6f8" stroke-width="6.5" stroke-linecap="round">
 <path d="M72 52 H96 M84 40 V64"/>
 <path d="M216 52 H240"/>
 <path d="M71 160 L94 183 M94 160 L71 183"/>
 <path d="M217 171 H239"/>
 <circle cx="228" cy="158" r="3.5" fill="#f5f6f8" stroke="none"/>
 <circle cx="228" cy="184" r="3.5" fill="#f5f6f8" stroke="none"/>
</g>
<g fill="url(#silver)">
 <path d="M382.5875 119.51Q387.9525 119.51 391.75874999999996 117.915Q395.565 116.32000000000001 397.9575 113.45625000000001Q400.35 110.5925 401.47375 106.64125Q402.59749999999997 102.69 402.59749999999997 97.905Q402.59749999999997 94.57000000000001 401.655 91.77875Q400.7125 88.98750000000001 398.79125 86.95750000000001Q396.87 84.92750000000001 393.93375000000003 83.84Q390.9975 82.75250000000001 387.01 82.75250000000001H374.83L370.2625 119.51ZM389.04 66.80250000000001Q398.175 66.80250000000001 404.70000000000005 69.01375000000002Q411.225 71.22500000000001 415.46625 75.14000000000001Q419.7075 79.055 421.70124999999996 84.42000000000002Q423.695 89.78500000000001 423.695 96.0925Q423.695 104.64750000000001 421.04875 111.86125000000001Q418.4025 119.075 413.07375 124.33125000000001Q407.745 129.5875 399.625 132.56Q391.505 135.5325 380.5575 135.5325H368.305L363.81 172.0H342.93L355.7625 66.80250000000001Z"/><path d="M452.0875 97.25250000000001 443.16999999999996 172.0H423.45L432.36749999999995 97.25250000000001ZM456.4375 76.01Q456.4375 78.5475 455.38625 80.7225Q454.335 82.89750000000001 452.63124999999997 84.565Q450.92749999999995 86.2325 448.71624999999995 87.17500000000001Q446.505 88.1175 444.18499999999995 88.1175Q441.86499999999995 88.1175 439.72624999999994 87.17500000000001Q437.5875 86.2325 435.95624999999995 84.565Q434.325 82.89750000000001 433.34624999999994 80.7225Q432.36749999999995 78.5475 432.36749999999995 76.01Q432.36749999999995 73.545 433.38249999999994 71.33375000000001Q434.3975 69.1225 436.02874999999995 67.45500000000001Q437.65999999999997 65.78750000000001 439.79875 64.80875Q441.9375 63.83000000000001 444.2575 63.83000000000001Q446.65 63.83000000000001 448.86125 64.77250000000001Q451.0725 65.715 452.74 67.38250000000001Q454.40749999999997 69.05000000000001 455.4225 71.26125000000002Q456.4375 73.47250000000001 456.4375 76.01Z"/><path d="M456.3374999999999 172.0 469.4599999999999 63.9025H489.17999999999995L475.98499999999996 172.0Z"/><path d="M520.0374999999999 158.08Q524.2425 158.08 527.5774999999999 155.615Q530.9124999999999 153.15 533.2324999999998 148.98125Q535.5524999999999 144.8125 536.82125 139.3025Q538.0899999999999 133.79250000000002 538.0899999999999 127.63Q538.0899999999999 118.93 535.4074999999999 115.05125000000001Q532.7249999999999 111.17250000000001 527.0699999999999 111.17250000000001Q522.9374999999999 111.17250000000001 519.5662499999999 113.60125000000001Q516.1949999999999 116.03 513.875 120.1625Q511.55499999999995 124.295 510.28624999999994 129.84125Q509.0174999999999 135.3875 509.0174999999999 141.55Q509.0174999999999 150.105 511.69999999999993 154.0925Q514.3824999999999 158.08 520.0374999999999 158.08ZM518.2974999999999 173.0875Q512.0624999999999 173.0875 506.6974999999999 171.02125Q501.3324999999999 168.955 497.4174999999999 164.9675Q493.50249999999994 160.98 491.29124999999993 155.10750000000002Q489.0799999999999 149.235 489.0799999999999 141.695Q489.0799999999999 131.9075 492.2699999999999 123.53375Q495.4599999999999 115.16 500.8974999999999 109.07Q506.3349999999999 102.98 513.5849999999999 99.53625Q520.8349999999999 96.0925 528.8824999999999 96.0925Q535.1175 96.0925 540.44625 98.15875Q545.775 100.22500000000001 549.6899999999999 104.24875Q553.6049999999999 108.27250000000001 555.8525 114.14500000000001Q558.0999999999999 120.01750000000001 558.0999999999999 127.5575Q558.0999999999999 137.2725 554.9099999999999 145.61Q551.7199999999999 153.9475 546.2462499999999 160.0375Q540.7724999999999 166.1275 533.5587499999999 169.60750000000002Q526.3449999999999 173.0875 518.2974999999999 173.0875Z"/><path d="M568.295 156.34Q568.295 155.8325 568.295 155.14375Q568.295 154.455 568.40375 153.11375Q568.5124999999999 151.7725 568.7662499999999 149.56125Q569.02 147.35 569.4549999999999 143.7975L573.4424999999999 111.6075H566.9174999999999Q565.4675 111.6075 564.56125 110.5925Q563.655 109.57750000000001 563.9449999999999 107.5475L564.8874999999999 99.7175L576.1974999999999 97.5425L582.3599999999999 78.185Q583.3749999999999 74.92250000000001 586.7824999999999 74.92250000000001H597.5124999999999L594.685 97.6875H612.1574999999999L610.4899999999999 111.6075H593.0174999999999L589.175 142.71Q588.8124999999999 145.6825 588.5949999999999 147.4225Q588.3774999999999 149.1625 588.26875 150.10500000000002Q588.16 151.0475 588.16 151.37375Q588.16 151.7 588.16 151.845Q588.16 154.3825 589.3199999999999 155.86874999999998Q590.4799999999999 157.355 592.8 157.355Q594.1049999999999 157.355 595.0474999999999 157.02875Q595.9899999999999 156.7025 596.6787499999999 156.30374999999998Q597.3675 155.905 597.9475 155.57875Q598.5274999999999 155.2525 599.18 155.2525Q600.1225 155.2525 600.5574999999999 155.65125Q600.9925 156.05 601.4274999999999 156.9925L605.7774999999999 166.5625Q601.5724999999999 169.825 596.5699999999999 171.4925Q591.5674999999999 173.16 586.4925 173.16Q578.2275 173.16 573.40625 168.70125000000002Q568.5849999999999 164.2425 568.295 156.34Z"/><path d="M709.425 112.4775Q709.425 121.105 707.5037499999999 128.89875Q705.5824999999999 136.6925 701.9937499999999 143.32625000000002Q698.4049999999999 149.96 693.3299999999999 155.2525Q688.2549999999999 160.545 681.9112499999999 164.27875Q675.5674999999999 168.0125 668.1362499999999 170.00625Q660.7049999999999 172.0 652.5124999999999 172.0H615.1024999999998L628.0799999999999 66.80250000000001H665.4899999999999Q675.6399999999999 66.80250000000001 683.7962499999999 70.24625Q691.9524999999999 73.69000000000001 697.64375 79.78Q703.3349999999999 85.87 706.3799999999999 94.24375Q709.425 102.6175 709.425 112.4775ZM687.8924999999999 112.98500000000001Q687.8924999999999 106.17 686.2612499999999 100.66Q684.6299999999999 95.15 681.5124999999998 91.27125000000001Q678.3949999999999 87.39250000000001 673.8637499999999 85.29Q669.3324999999999 83.1875 663.4599999999999 83.1875H647.1474999999999L638.3024999999999 155.5425H654.5424999999999Q662.1549999999999 155.5425 668.3174999999999 152.57Q674.4799999999999 149.5975 678.8299999999999 144.08749999999998Q683.1799999999998 138.5775 685.5362499999999 130.71125Q687.8924999999999 122.845 687.8924999999999 112.98500000000001Z"/><path d="M751.5924999999999 109.94Q748.4024999999998 109.94 745.5749999999998 111.28125Q742.7474999999998 112.6225 740.4637499999999 115.05125000000001Q738.1799999999998 117.48 736.4399999999998 120.8875Q734.6999999999998 124.295 733.6124999999998 128.5Q741.6599999999999 127.34 746.6262499999998 125.99875Q751.5924999999999 124.6575 754.3112499999999 123.09875Q757.0299999999999 121.54 757.9362499999999 119.7275Q758.8424999999999 117.915 758.8424999999999 115.8125Q758.8424999999999 114.79750000000001 758.4074999999998 113.74625Q757.9724999999999 112.69500000000001 757.1024999999998 111.86125000000001Q756.2324999999998 111.0275 754.8549999999998 110.48375Q753.4774999999998 109.94 751.5924999999999 109.94ZM732.0174999999998 141.3325Q732.0174999999998 157.935 746.0099999999999 157.935Q750.6499999999999 157.935 753.5862499999998 156.73874999999998Q756.5224999999998 155.5425 758.6249999999998 154.12875Q760.7274999999998 152.715 762.5037499999999 151.51875Q764.2799999999999 150.3225 766.5999999999999 150.3225Q767.6149999999999 150.3225 768.5212499999999 150.79375Q769.4274999999999 151.265 770.1524999999998 152.0625L775.2274999999998 158.1525Q771.3124999999999 162.0675 767.6149999999999 164.85875Q763.9174999999999 167.65 759.9299999999998 169.49875Q755.9424999999999 171.3475 751.5924999999999 172.2175Q747.2424999999998 173.0875 742.0224999999998 173.0875Q735.4249999999998 173.0875 729.9874999999998 170.84Q724.5499999999998 168.5925 720.6712499999999 164.49625Q716.7924999999999 160.4 714.65375 154.63625000000002Q712.5149999999999 148.8725 712.5149999999999 141.7675Q712.5149999999999 135.8225 713.8199999999999 130.1675Q715.1249999999999 124.5125 717.5899999999999 119.4375Q720.0549999999998 114.36250000000001 723.5712499999998 110.12125Q727.0874999999999 105.88000000000001 731.5824999999999 102.79875000000001Q736.0774999999999 99.7175 741.4062499999999 97.9775Q746.7349999999999 96.23750000000001 752.7524999999998 96.23750000000001Q758.6249999999999 96.23750000000001 763.1562499999999 97.94125000000001Q767.6874999999999 99.64500000000001 770.7324999999998 102.36375000000001Q773.7774999999998 105.08250000000001 775.3362499999998 108.4175Q776.8949999999999 111.7525 776.8949999999999 115.0875Q776.8949999999999 120.09 774.8649999999998 124.295Q772.8349999999998 128.5 767.7599999999998 131.79874999999998Q762.6849999999998 135.0975 753.9849999999999 137.45375Q745.2849999999999 139.81 732.0174999999998 141.115Z"/><path d="M830.8799999999998 112.0425Q830.0099999999998 113.275 829.1762499999998 113.81875000000001Q828.3424999999997 114.36250000000001 827.1099999999998 114.36250000000001Q825.7324999999998 114.36250000000001 824.3912499999999 113.6375Q823.0499999999998 112.9125 821.3824999999998 112.07875Q819.7149999999998 111.245 817.5762499999998 110.52000000000001Q815.4374999999998 109.795 812.5374999999998 109.795Q807.0999999999998 109.795 804.4537499999998 112.11500000000001Q801.8074999999998 114.435 801.8074999999998 117.915Q801.8074999999998 120.7425 803.9099999999999 122.44625Q806.0124999999998 124.15 809.2024999999999 125.49125000000001Q812.3924999999998 126.83250000000001 816.0899999999998 128.21Q819.7874999999998 129.5875 822.9774999999997 131.7625Q826.1674999999998 133.9375 828.2699999999998 137.345Q830.3724999999998 140.7525 830.3724999999998 146.04500000000002Q830.3724999999998 151.555 828.1974999999998 156.485Q826.0224999999998 161.415 821.9262499999998 165.1125Q817.8299999999998 168.81 812.0299999999997 170.985Q806.2299999999998 173.16 799.0524999999998 173.16Q795.4999999999998 173.16 792.1287499999999 172.47125Q788.7574999999998 171.7825 785.7487499999997 170.51375000000002Q782.7399999999998 169.245 780.3112499999997 167.5775Q777.8824999999998 165.91 776.2149999999998 163.9525L781.1449999999998 156.485Q782.0149999999998 155.18 783.2474999999997 154.45499999999998Q784.4799999999998 153.73 786.2199999999998 153.73Q787.8149999999998 153.73 789.1199999999999 154.63625Q790.4249999999998 155.5425 792.0199999999998 156.59375Q793.6149999999998 157.645 795.8262499999998 158.55125Q798.0374999999998 159.4575 801.5899999999998 159.4575Q804.2724999999998 159.4575 806.3387499999998 158.76875Q808.4049999999997 158.08 809.8187499999998 156.88375000000002Q811.2324999999998 155.6875 811.9212499999999 154.0925Q812.6099999999998 152.4975 812.6099999999998 150.7575Q812.6099999999998 147.5675 810.5074999999997 145.8275Q808.4049999999997 144.0875 805.2512499999998 142.7825Q802.0974999999999 141.4775 798.3999999999999 140.245Q794.7024999999998 139.0125 791.5487499999997 136.91Q788.3949999999998 134.8075 786.2924999999998 131.4725Q784.1899999999998 128.1375 784.1899999999998 122.555Q784.1899999999998 117.48 786.1112499999998 112.73125Q788.0324999999998 107.9825 791.7299999999998 104.285Q795.4274999999998 100.5875 800.9012499999998 98.34Q806.3749999999998 96.0925 813.5524999999998 96.0925Q820.8749999999998 96.0925 826.5662499999999 98.59375Q832.2574999999998 101.095 836.0274999999998 104.9375Z"/><path d="M869.2774999999998 63.9025 861.7374999999997 125.23750000000001H863.4774999999997Q865.2174999999997 125.23750000000001 866.3049999999998 124.69375000000001Q867.3924999999998 124.15 868.6249999999998 122.7L886.4599999999998 100.66000000000001Q887.7649999999998 98.9925 889.2874999999997 98.1225Q890.8099999999997 97.25250000000001 892.9849999999998 97.25250000000001H910.8924999999998L887.9099999999997 124.5125Q886.4599999999998 126.18 884.9737499999998 127.52125000000001Q883.4874999999997 128.8625 881.8199999999998 129.8775Q883.2699999999998 131.0375 884.2487499999997 132.56Q885.2274999999997 134.0825 886.0974999999997 135.9675L902.9899999999998 172.0H885.6624999999998Q883.4874999999997 172.0 882.0374999999997 171.23874999999998Q880.5874999999997 170.4775 879.7899999999997 168.52L867.1749999999997 141.0425Q866.3774999999998 139.3025 865.5074999999998 138.79500000000002Q864.6374999999998 138.2875 862.5349999999997 138.2875H860.1424999999998L856.0099999999998 172.0H836.2899999999997L849.6299999999998 63.9025Z"/>
</g>
</svg>